<?xml version="1.0" encoding="UTF-8"?>
<svg id="Layer_1" data-name="Layer 1" xmlns="http://www.w3.org/2000/svg" viewBox="0 0 48 48">
  <path d="M7.58,13.81c1.65-2.99,3.95-5.33,6.91-6.99,2.95-1.67,6.31-2.51,10.05-2.51,4.59,0,8.52,1.21,11.79,3.64,3.27,2.42,5.46,5.73,6.55,9.91h-10.36c-.77-1.61-1.87-2.84-3.28-3.69-1.41-.84-3.02-1.27-4.82-1.27-2.9,0-5.25,1.01-7.05,3.03-1.8,2.02-2.7,4.72-2.7,8.1s.9,6.08,2.7,8.1c1.8,2.02,4.15,3.03,7.05,3.03,1.8,0,3.41-.42,4.82-1.27,1.41-.84,2.51-2.08,3.28-3.69h10.36c-1.1,4.19-3.29,7.48-6.55,9.89-3.27,2.4-7.2,3.6-11.79,3.6-3.74,0-7.1-.83-10.05-2.51-2.96-1.67-5.26-3.99-6.91-6.97-1.65-2.98-2.48-6.37-2.48-10.19s.82-7.23,2.48-10.22Z"/>
</svg>